<?xml version="1.0" encoding="UTF-8" standalone="no"?>
<!DOCTYPE svg PUBLIC "-//W3C//DTD SVG 1.1//EN"
 "http://www.w3.org/Graphics/SVG/1.1/DTD/svg11.dtd">
<!-- Generated by graphviz version 2.47.3 (20210619.1520)
 -->
<!-- Title: dependencies Pages: 1 -->
<svg width="1916pt" height="247pt"
 viewBox="0.00 0.00 1916.00 246.80" xmlns="http://www.w3.org/2000/svg" xmlns:xlink="http://www.w3.org/1999/xlink">
<g id="graph0" class="graph" transform="scale(1 1) rotate(0) translate(4 242.8)">
<title>dependencies</title>
<polygon fill="white" stroke="transparent" points="-4,4 -4,-242.8 1912,-242.8 1912,4 -4,4"/>
<text text-anchor="middle" x="954" y="-8.2" font-family="sans-serif" font-size="14.00">dependencies</text>
<g id="clust1" class="cluster">
<title>cluster_AppModule</title>
<polygon fill="none" stroke="black" stroke-dasharray="1,5" points="8,-32.8 8,-230.8 1900,-230.8 1900,-32.8 8,-32.8"/>
</g>
<g id="clust13" class="cluster">
<title>cluster_AppModule_imports</title>
<polygon fill="none" stroke="black" points="1748,-40.8 1748,-92.8 1892,-92.8 1892,-40.8 1748,-40.8"/>
</g>
<g id="clust15" class="cluster">
<title>cluster_AppModule_bootstrap</title>
<polygon fill="none" stroke="black" points="947,-170.8 947,-222.8 1071,-222.8 1071,-170.8 947,-170.8"/>
</g>
<g id="clust2" class="cluster">
<title>cluster_AppModule_declarations</title>
<polygon fill="none" stroke="black" points="16,-40.8 16,-92.8 1740,-92.8 1740,-40.8 16,-40.8"/>
</g>
<!-- AppComponent -->
<g id="node1" class="node">
<title>AppComponent</title>
<polygon fill="#ffffb3" stroke="black" points="1731.94,-84.8 1626.06,-84.8 1626.06,-48.8 1731.94,-48.8 1731.94,-84.8"/>
<text text-anchor="middle" x="1679" y="-62.6" font-family="Times,serif" font-size="14.00">AppComponent</text>
</g>
<!-- AppModule -->
<g id="node11" class="node">
<title>AppModule</title>
<polygon fill="#8dd3c7" stroke="black" points="1050.66,-149.8 1047.66,-153.8 1026.66,-153.8 1023.66,-149.8 967.34,-149.8 967.34,-113.8 1050.66,-113.8 1050.66,-149.8"/>
<text text-anchor="middle" x="1009" y="-127.6" font-family="Times,serif" font-size="14.00">AppModule</text>
</g>
<!-- AppComponent&#45;&gt;AppModule -->
<g id="edge1" class="edge">
<title>AppComponent&#45;&gt;AppModule</title>
<path fill="none" stroke="black" d="M1679,-85.08C1679,-106.12 1679,-137.8 1679,-137.8 1679,-137.8 1060.66,-137.8 1060.66,-137.8"/>
<polygon fill="black" stroke="black" points="1060.66,-134.3 1050.66,-137.8 1060.66,-141.3 1060.66,-134.3"/>
</g>
<!-- MovieCardComponent -->
<g id="node2" class="node">
<title>MovieCardComponent</title>
<polygon fill="#ffffb3" stroke="black" points="1608.59,-84.8 1463.41,-84.8 1463.41,-48.8 1608.59,-48.8 1608.59,-84.8"/>
<text text-anchor="middle" x="1536" y="-62.6" font-family="Times,serif" font-size="14.00">MovieCardComponent</text>
</g>
<!-- MovieCardComponent&#45;&gt;AppModule -->
<g id="edge2" class="edge">
<title>MovieCardComponent&#45;&gt;AppModule</title>
<path fill="none" stroke="black" d="M1536,-84.91C1536,-104.14 1536,-131.8 1536,-131.8 1536,-131.8 1060.79,-131.8 1060.79,-131.8"/>
<polygon fill="black" stroke="black" points="1060.79,-128.3 1050.79,-131.8 1060.79,-135.3 1060.79,-128.3"/>
</g>
<!-- MovieDirectorComponent -->
<g id="node3" class="node">
<title>MovieDirectorComponent</title>
<polygon fill="#ffffb3" stroke="black" points="1445.02,-84.8 1280.98,-84.8 1280.98,-48.8 1445.02,-48.8 1445.02,-84.8"/>
<text text-anchor="middle" x="1363" y="-62.6" font-family="Times,serif" font-size="14.00">MovieDirectorComponent</text>
</g>
<!-- MovieDirectorComponent&#45;&gt;AppModule -->
<g id="edge3" class="edge">
<title>MovieDirectorComponent&#45;&gt;AppModule</title>
<path fill="none" stroke="black" d="M1363,-84.82C1363,-102.17 1363,-125.8 1363,-125.8 1363,-125.8 1061,-125.8 1061,-125.8"/>
<polygon fill="black" stroke="black" points="1061,-122.3 1051,-125.8 1061,-129.3 1061,-122.3"/>
</g>
<!-- MovieGenreComponent -->
<g id="node4" class="node">
<title>MovieGenreComponent</title>
<polygon fill="#ffffb3" stroke="black" points="1263.08,-84.8 1110.92,-84.8 1110.92,-48.8 1263.08,-48.8 1263.08,-84.8"/>
<text text-anchor="middle" x="1187" y="-62.6" font-family="Times,serif" font-size="14.00">MovieGenreComponent</text>
</g>
<!-- MovieGenreComponent&#45;&gt;AppModule -->
<g id="edge4" class="edge">
<title>MovieGenreComponent&#45;&gt;AppModule</title>
<path fill="none" stroke="black" d="M1187,-85.04C1187,-100.37 1187,-119.8 1187,-119.8 1187,-119.8 1060.73,-119.8 1060.73,-119.8"/>
<polygon fill="black" stroke="black" points="1060.73,-116.3 1050.73,-119.8 1060.73,-123.3 1060.73,-116.3"/>
</g>
<!-- MovieSynopsisComponent -->
<g id="node5" class="node">
<title>MovieSynopsisComponent</title>
<polygon fill="#ffffb3" stroke="black" points="1093.45,-84.8 924.55,-84.8 924.55,-48.8 1093.45,-48.8 1093.45,-84.8"/>
<text text-anchor="middle" x="1009" y="-62.6" font-family="Times,serif" font-size="14.00">MovieSynopsisComponent</text>
</g>
<!-- MovieSynopsisComponent&#45;&gt;AppModule -->
<g id="edge5" class="edge">
<title>MovieSynopsisComponent&#45;&gt;AppModule</title>
<path fill="none" stroke="black" d="M1009,-84.91C1009,-84.91 1009,-103.79 1009,-103.79"/>
<polygon fill="black" stroke="black" points="1005.5,-103.79 1009,-113.79 1012.5,-103.79 1005.5,-103.79"/>
</g>
<!-- NavBarComponent -->
<g id="node6" class="node">
<title>NavBarComponent</title>
<polygon fill="#ffffb3" stroke="black" points="906.37,-84.8 781.63,-84.8 781.63,-48.8 906.37,-48.8 906.37,-84.8"/>
<text text-anchor="middle" x="844" y="-62.6" font-family="Times,serif" font-size="14.00">NavBarComponent</text>
</g>
<!-- NavBarComponent&#45;&gt;AppModule -->
<g id="edge6" class="edge">
<title>NavBarComponent&#45;&gt;AppModule</title>
<path fill="none" stroke="black" d="M844,-85.04C844,-100.37 844,-119.8 844,-119.8 844,-119.8 956.94,-119.8 956.94,-119.8"/>
<polygon fill="black" stroke="black" points="956.94,-123.3 966.94,-119.8 956.94,-116.3 956.94,-123.3"/>
</g>
<!-- UserLoginFormComponent -->
<g id="node7" class="node">
<title>UserLoginFormComponent</title>
<polygon fill="#ffffb3" stroke="black" points="763.54,-84.8 592.46,-84.8 592.46,-48.8 763.54,-48.8 763.54,-84.8"/>
<text text-anchor="middle" x="678" y="-62.6" font-family="Times,serif" font-size="14.00">UserLoginFormComponent</text>
</g>
<!-- UserLoginFormComponent&#45;&gt;AppModule -->
<g id="edge7" class="edge">
<title>UserLoginFormComponent&#45;&gt;AppModule</title>
<path fill="none" stroke="black" d="M678,-84.82C678,-102.17 678,-125.8 678,-125.8 678,-125.8 957.08,-125.8 957.08,-125.8"/>
<polygon fill="black" stroke="black" points="957.08,-129.3 967.08,-125.8 957.08,-122.3 957.08,-129.3"/>
</g>
<!-- UserProfileComponent -->
<g id="node8" class="node">
<title>UserProfileComponent</title>
<polygon fill="#ffffb3" stroke="black" points="573.86,-84.8 428.14,-84.8 428.14,-48.8 573.86,-48.8 573.86,-84.8"/>
<text text-anchor="middle" x="501" y="-62.6" font-family="Times,serif" font-size="14.00">UserProfileComponent</text>
</g>
<!-- UserProfileComponent&#45;&gt;AppModule -->
<g id="edge8" class="edge">
<title>UserProfileComponent&#45;&gt;AppModule</title>
<path fill="none" stroke="black" d="M501,-84.91C501,-104.14 501,-131.8 501,-131.8 501,-131.8 957,-131.8 957,-131.8"/>
<polygon fill="black" stroke="black" points="957,-135.3 967,-131.8 957,-128.3 957,-135.3"/>
</g>
<!-- UserRegistrationFormComponent -->
<g id="node9" class="node">
<title>UserRegistrationFormComponent</title>
<polygon fill="#ffffb3" stroke="black" points="410.03,-84.8 203.97,-84.8 203.97,-48.8 410.03,-48.8 410.03,-84.8"/>
<text text-anchor="middle" x="307" y="-62.6" font-family="Times,serif" font-size="14.00">UserRegistrationFormComponent</text>
</g>
<!-- UserRegistrationFormComponent&#45;&gt;AppModule -->
<g id="edge9" class="edge">
<title>UserRegistrationFormComponent&#45;&gt;AppModule</title>
<path fill="none" stroke="black" d="M307,-85.08C307,-106.12 307,-137.8 307,-137.8 307,-137.8 957.19,-137.8 957.19,-137.8"/>
<polygon fill="black" stroke="black" points="957.19,-141.3 967.19,-137.8 957.19,-134.3 957.19,-141.3"/>
</g>
<!-- WelcomePageComponent -->
<g id="node10" class="node">
<title>WelcomePageComponent</title>
<polygon fill="#ffffb3" stroke="black" points="186.18,-84.8 23.82,-84.8 23.82,-48.8 186.18,-48.8 186.18,-84.8"/>
<text text-anchor="middle" x="105" y="-62.6" font-family="Times,serif" font-size="14.00">WelcomePageComponent</text>
</g>
<!-- WelcomePageComponent&#45;&gt;AppModule -->
<g id="edge10" class="edge">
<title>WelcomePageComponent&#45;&gt;AppModule</title>
<path fill="none" stroke="black" d="M105,-85.05C105,-107.82 105,-143.8 105,-143.8 105,-143.8 957.21,-143.8 957.21,-143.8"/>
<polygon fill="black" stroke="black" points="957.21,-147.3 967.21,-143.8 957.21,-140.3 957.21,-147.3"/>
</g>
<!-- AppComponent  -->
<g id="node13" class="node">
<title>AppComponent </title>
<polygon fill="#80b1d3" stroke="black" points="1063.44,-214.8 954.56,-214.8 954.56,-178.8 1063.44,-178.8 1063.44,-214.8"/>
<text text-anchor="middle" x="1009" y="-192.6" font-family="Times,serif" font-size="14.00">AppComponent </text>
</g>
<!-- AppModule&#45;&gt;AppComponent  -->
<g id="edge12" class="edge">
<title>AppModule&#45;&gt;AppComponent </title>
<path fill="none" stroke="black" stroke-dasharray="1,5" d="M1009,-149.91C1009,-149.91 1009,-168.79 1009,-168.79"/>
<polygon fill="black" stroke="black" points="1005.5,-168.79 1009,-178.79 1012.5,-168.79 1005.5,-168.79"/>
</g>
<!-- AppRoutingModule -->
<g id="node12" class="node">
<title>AppRoutingModule</title>
<polygon fill="#8dd3c7" stroke="black" points="1884.27,-84.8 1881.27,-88.8 1860.27,-88.8 1857.27,-84.8 1755.73,-84.8 1755.73,-48.8 1884.27,-48.8 1884.27,-84.8"/>
<text text-anchor="middle" x="1820" y="-62.6" font-family="Times,serif" font-size="14.00">AppRoutingModule</text>
</g>
<!-- AppRoutingModule&#45;&gt;AppModule -->
<g id="edge11" class="edge">
<title>AppRoutingModule&#45;&gt;AppModule</title>
<path fill="none" stroke="black" d="M1820,-85.05C1820,-107.82 1820,-143.8 1820,-143.8 1820,-143.8 1060.9,-143.8 1060.9,-143.8"/>
<polygon fill="black" stroke="black" points="1060.9,-140.3 1050.9,-143.8 1060.9,-147.3 1060.9,-140.3"/>
</g>
</g>
</svg>
