<?xml version="1.0" encoding="UTF-8" standalone="no"?>
<!DOCTYPE svg PUBLIC "-//W3C//DTD SVG 1.1//EN"
 "http://www.w3.org/Graphics/SVG/1.1/DTD/svg11.dtd">
<!-- Generated by graphviz version 2.47.3 (20210619.1520)
 -->
<!-- Title: dependencies Pages: 1 -->
<svg width="1916pt" height="247pt"
 viewBox="0.00 0.00 1916.00 246.80" xmlns="http://www.w3.org/2000/svg" xmlns:xlink="http://www.w3.org/1999/xlink">
<g id="graph0" class="graph" transform="scale(1 1) rotate(0) translate(4 242.8)">
<title>dependencies</title>
<polygon fill="white" stroke="transparent" points="-4,4 -4,-242.8 1912,-242.8 1912,4 -4,4"/>
<text text-anchor="middle" x="954" y="-8.2" font-family="sans-serif" font-size="14.00">dependencies</text>
<g id="clust1" class="cluster">
<title>cluster_AppModule</title>
<polygon fill="none" stroke="black" stroke-dasharray="1,5" points="8,-32.8 8,-230.8 1900,-230.8 1900,-32.8 8,-32.8"/>
</g>
<g id="clust2" class="cluster">
<title>cluster_AppModule_declarations</title>
<polygon fill="none" stroke="black" points="168,-40.8 168,-92.8 1892,-92.8 1892,-40.8 168,-40.8"/>
</g>
<g id="clust13" class="cluster">
<title>cluster_AppModule_imports</title>
<polygon fill="none" stroke="black" points="16,-40.8 16,-92.8 160,-92.8 160,-40.8 16,-40.8"/>
</g>
<g id="clust15" class="cluster">
<title>cluster_AppModule_bootstrap</title>
<polygon fill="none" stroke="black" points="934,-170.8 934,-222.8 1058,-222.8 1058,-170.8 934,-170.8"/>
</g>
<!-- AppComponent -->
<g id="node1" class="node">
<title>AppComponent</title>
<polygon fill="#ffffb3" stroke="black" points="1883.94,-84.8 1778.06,-84.8 1778.06,-48.8 1883.94,-48.8 1883.94,-84.8"/>
<text text-anchor="middle" x="1831" y="-62.6" font-family="Times,serif" font-size="14.00">AppComponent</text>
</g>
<!-- AppModule -->
<g id="node11" class="node">
<title>AppModule</title>
<polygon fill="#8dd3c7" stroke="black" points="1037.66,-149.8 1034.66,-153.8 1013.66,-153.8 1010.66,-149.8 954.34,-149.8 954.34,-113.8 1037.66,-113.8 1037.66,-149.8"/>
<text text-anchor="middle" x="996" y="-127.6" font-family="Times,serif" font-size="14.00">AppModule</text>
</g>
<!-- AppComponent&#45;&gt;AppModule -->
<g id="edge1" class="edge">
<title>AppComponent&#45;&gt;AppModule</title>
<path fill="none" stroke="black" d="M1831,-85.05C1831,-107.82 1831,-143.8 1831,-143.8 1831,-143.8 1047.69,-143.8 1047.69,-143.8"/>
<polygon fill="black" stroke="black" points="1047.69,-140.3 1037.69,-143.8 1047.69,-147.3 1047.69,-140.3"/>
</g>
<!-- MovieCardComponent -->
<g id="node2" class="node">
<title>MovieCardComponent</title>
<polygon fill="#ffffb3" stroke="black" points="1760.59,-84.8 1615.41,-84.8 1615.41,-48.8 1760.59,-48.8 1760.59,-84.8"/>
<text text-anchor="middle" x="1688" y="-62.6" font-family="Times,serif" font-size="14.00">MovieCardComponent</text>
</g>
<!-- MovieCardComponent&#45;&gt;AppModule -->
<g id="edge2" class="edge">
<title>MovieCardComponent&#45;&gt;AppModule</title>
<path fill="none" stroke="black" d="M1688,-85.08C1688,-106.12 1688,-137.8 1688,-137.8 1688,-137.8 1047.73,-137.8 1047.73,-137.8"/>
<polygon fill="black" stroke="black" points="1047.73,-134.3 1037.73,-137.8 1047.73,-141.3 1047.73,-134.3"/>
</g>
<!-- MovieDirectorComponent -->
<g id="node3" class="node">
<title>MovieDirectorComponent</title>
<polygon fill="#ffffb3" stroke="black" points="1597.02,-84.8 1432.98,-84.8 1432.98,-48.8 1597.02,-48.8 1597.02,-84.8"/>
<text text-anchor="middle" x="1515" y="-62.6" font-family="Times,serif" font-size="14.00">MovieDirectorComponent</text>
</g>
<!-- MovieDirectorComponent&#45;&gt;AppModule -->
<g id="edge3" class="edge">
<title>MovieDirectorComponent&#45;&gt;AppModule</title>
<path fill="none" stroke="black" d="M1515,-84.91C1515,-104.14 1515,-131.8 1515,-131.8 1515,-131.8 1048.03,-131.8 1048.03,-131.8"/>
<polygon fill="black" stroke="black" points="1048.03,-128.3 1038.03,-131.8 1048.03,-135.3 1048.03,-128.3"/>
</g>
<!-- MovieGenreComponent -->
<g id="node4" class="node">
<title>MovieGenreComponent</title>
<polygon fill="#ffffb3" stroke="black" points="1415.08,-84.8 1262.92,-84.8 1262.92,-48.8 1415.08,-48.8 1415.08,-84.8"/>
<text text-anchor="middle" x="1339" y="-62.6" font-family="Times,serif" font-size="14.00">MovieGenreComponent</text>
</g>
<!-- MovieGenreComponent&#45;&gt;AppModule -->
<g id="edge4" class="edge">
<title>MovieGenreComponent&#45;&gt;AppModule</title>
<path fill="none" stroke="black" d="M1339,-84.82C1339,-102.17 1339,-125.8 1339,-125.8 1339,-125.8 1047.72,-125.8 1047.72,-125.8"/>
<polygon fill="black" stroke="black" points="1047.72,-122.3 1037.72,-125.8 1047.72,-129.3 1047.72,-122.3"/>
</g>
<!-- MovieSynopsisComponent -->
<g id="node5" class="node">
<title>MovieSynopsisComponent</title>
<polygon fill="#ffffb3" stroke="black" points="1245.45,-84.8 1076.55,-84.8 1076.55,-48.8 1245.45,-48.8 1245.45,-84.8"/>
<text text-anchor="middle" x="1161" y="-62.6" font-family="Times,serif" font-size="14.00">MovieSynopsisComponent</text>
</g>
<!-- MovieSynopsisComponent&#45;&gt;AppModule -->
<g id="edge5" class="edge">
<title>MovieSynopsisComponent&#45;&gt;AppModule</title>
<path fill="none" stroke="black" d="M1161,-85.04C1161,-100.37 1161,-119.8 1161,-119.8 1161,-119.8 1048.06,-119.8 1048.06,-119.8"/>
<polygon fill="black" stroke="black" points="1048.06,-116.3 1038.06,-119.8 1048.06,-123.3 1048.06,-116.3"/>
</g>
<!-- NavBarComponent -->
<g id="node6" class="node">
<title>NavBarComponent</title>
<polygon fill="#ffffb3" stroke="black" points="1058.37,-84.8 933.63,-84.8 933.63,-48.8 1058.37,-48.8 1058.37,-84.8"/>
<text text-anchor="middle" x="996" y="-62.6" font-family="Times,serif" font-size="14.00">NavBarComponent</text>
</g>
<!-- NavBarComponent&#45;&gt;AppModule -->
<g id="edge6" class="edge">
<title>NavBarComponent&#45;&gt;AppModule</title>
<path fill="none" stroke="black" d="M996,-84.91C996,-84.91 996,-103.79 996,-103.79"/>
<polygon fill="black" stroke="black" points="992.5,-103.79 996,-113.79 999.5,-103.79 992.5,-103.79"/>
</g>
<!-- UserLoginFormComponent -->
<g id="node7" class="node">
<title>UserLoginFormComponent</title>
<polygon fill="#ffffb3" stroke="black" points="915.54,-84.8 744.46,-84.8 744.46,-48.8 915.54,-48.8 915.54,-84.8"/>
<text text-anchor="middle" x="830" y="-62.6" font-family="Times,serif" font-size="14.00">UserLoginFormComponent</text>
</g>
<!-- UserLoginFormComponent&#45;&gt;AppModule -->
<g id="edge7" class="edge">
<title>UserLoginFormComponent&#45;&gt;AppModule</title>
<path fill="none" stroke="black" d="M830,-85.04C830,-100.37 830,-119.8 830,-119.8 830,-119.8 944.11,-119.8 944.11,-119.8"/>
<polygon fill="black" stroke="black" points="944.11,-123.3 954.11,-119.8 944.11,-116.3 944.11,-123.3"/>
</g>
<!-- UserProfileComponent -->
<g id="node8" class="node">
<title>UserProfileComponent</title>
<polygon fill="#ffffb3" stroke="black" points="725.86,-84.8 580.14,-84.8 580.14,-48.8 725.86,-48.8 725.86,-84.8"/>
<text text-anchor="middle" x="653" y="-62.6" font-family="Times,serif" font-size="14.00">UserProfileComponent</text>
</g>
<!-- UserProfileComponent&#45;&gt;AppModule -->
<g id="edge8" class="edge">
<title>UserProfileComponent&#45;&gt;AppModule</title>
<path fill="none" stroke="black" d="M653,-84.82C653,-102.17 653,-125.8 653,-125.8 653,-125.8 944.28,-125.8 944.28,-125.8"/>
<polygon fill="black" stroke="black" points="944.28,-129.3 954.28,-125.8 944.28,-122.3 944.28,-129.3"/>
</g>
<!-- UserRegistrationFormComponent -->
<g id="node9" class="node">
<title>UserRegistrationFormComponent</title>
<polygon fill="#ffffb3" stroke="black" points="562.03,-84.8 355.97,-84.8 355.97,-48.8 562.03,-48.8 562.03,-84.8"/>
<text text-anchor="middle" x="459" y="-62.6" font-family="Times,serif" font-size="14.00">UserRegistrationFormComponent</text>
</g>
<!-- UserRegistrationFormComponent&#45;&gt;AppModule -->
<g id="edge9" class="edge">
<title>UserRegistrationFormComponent&#45;&gt;AppModule</title>
<path fill="none" stroke="black" d="M459,-84.91C459,-104.14 459,-131.8 459,-131.8 459,-131.8 944.31,-131.8 944.31,-131.8"/>
<polygon fill="black" stroke="black" points="944.31,-135.3 954.31,-131.8 944.31,-128.3 944.31,-135.3"/>
</g>
<!-- WelcomePageComponent -->
<g id="node10" class="node">
<title>WelcomePageComponent</title>
<polygon fill="#ffffb3" stroke="black" points="338.18,-84.8 175.82,-84.8 175.82,-48.8 338.18,-48.8 338.18,-84.8"/>
<text text-anchor="middle" x="257" y="-62.6" font-family="Times,serif" font-size="14.00">WelcomePageComponent</text>
</g>
<!-- WelcomePageComponent&#45;&gt;AppModule -->
<g id="edge10" class="edge">
<title>WelcomePageComponent&#45;&gt;AppModule</title>
<path fill="none" stroke="black" d="M257,-85.08C257,-106.12 257,-137.8 257,-137.8 257,-137.8 944.15,-137.8 944.15,-137.8"/>
<polygon fill="black" stroke="black" points="944.15,-141.3 954.15,-137.8 944.15,-134.3 944.15,-141.3"/>
</g>
<!-- AppComponent  -->
<g id="node13" class="node">
<title>AppComponent </title>
<polygon fill="#80b1d3" stroke="black" points="1050.44,-214.8 941.56,-214.8 941.56,-178.8 1050.44,-178.8 1050.44,-214.8"/>
<text text-anchor="middle" x="996" y="-192.6" font-family="Times,serif" font-size="14.00">AppComponent </text>
</g>
<!-- AppModule&#45;&gt;AppComponent  -->
<g id="edge12" class="edge">
<title>AppModule&#45;&gt;AppComponent </title>
<path fill="none" stroke="black" stroke-dasharray="1,5" d="M996,-149.91C996,-149.91 996,-168.79 996,-168.79"/>
<polygon fill="black" stroke="black" points="992.5,-168.79 996,-178.79 999.5,-168.79 992.5,-168.79"/>
</g>
<!-- AppRoutingModule -->
<g id="node12" class="node">
<title>AppRoutingModule</title>
<polygon fill="#8dd3c7" stroke="black" points="152.27,-84.8 149.27,-88.8 128.27,-88.8 125.27,-84.8 23.73,-84.8 23.73,-48.8 152.27,-48.8 152.27,-84.8"/>
<text text-anchor="middle" x="88" y="-62.6" font-family="Times,serif" font-size="14.00">AppRoutingModule</text>
</g>
<!-- AppRoutingModule&#45;&gt;AppModule -->
<g id="edge11" class="edge">
<title>AppRoutingModule&#45;&gt;AppModule</title>
<path fill="none" stroke="black" d="M88,-85.05C88,-107.82 88,-143.8 88,-143.8 88,-143.8 944.33,-143.8 944.33,-143.8"/>
<polygon fill="black" stroke="black" points="944.33,-147.3 954.33,-143.8 944.33,-140.3 944.33,-147.3"/>
</g>
</g>
</svg>
